<svg id="visual" viewBox="0 0 900 600" width="900" height="600" xmlns="http://www.w3.org/2000/svg" xmlns:xlink="http://www.w3.org/1999/xlink" version="1.1"><rect x="0" y="0" width="900" height="600" fill="#ffc93c"></rect><g fill="#f8f398"><circle r="66" cx="751" cy="461"></circle><circle r="21" cx="662" cy="93"></circle><circle r="28" cx="29" cy="267"></circle><circle r="23" cx="491" cy="177"></circle><circle r="53" cx="395" cy="439"></circle><circle r="62" cx="224" cy="8"></circle><circle r="27" cx="23" cy="38"></circle><circle r="25" cx="892" cy="193"></circle><circle r="24" cx="604" cy="483"></circle><circle r="33" cx="261" cy="579"></circle><circle r="53" cx="249" cy="429"></circle><circle r="41" cx="884" cy="447"></circle><circle r="22" cx="49" cy="501"></circle><circle r="38" cx="791" cy="32"></circle><circle r="59" cx="617" cy="338"></circle><circle r="27" cx="489" cy="575"></circle><circle r="59" cx="501" cy="38"></circle><circle r="54" cx="144" cy="127"></circle><circle r="31" cx="802" cy="590"></circle><circle r="56" cx="336" cy="270"></circle><circle r="32" cx="357" cy="44"></circle><circle r="31" cx="179" cy="314"></circle><circle r="61" cx="768" cy="313"></circle><circle r="20" cx="468" cy="308"></circle></g></svg>