<svg id="visual" viewBox="0 0 900 600" width="900" height="600" xmlns="http://www.w3.org/2000/svg" xmlns:xlink="http://www.w3.org/1999/xlink" version="1.1"><g stroke-width="1" stroke-linejoin="bevel"><path d="M426 276L416 247.4L388 251.9Z" fill="#0c2435" stroke="#0c2435"></path><path d="M416 247.4L394 230L388 251.9Z" fill="#112e42" stroke="#112e42"></path><path d="M394 230L370 228L388 251.9Z" fill="#081a28" stroke="#081a28"></path><path d="M394 230L378 222.1L370 228Z" fill="#0c2435" stroke="#0c2435"></path><path d="M439 205L396 201.6L394 230Z" fill="#112e42" stroke="#112e42"></path><path d="M394 230L396 201.6L378 222.1Z" fill="#15384f" stroke="#15384f"></path><path d="M287 201L343 238.4L328 144.3Z" fill="#0c2435" stroke="#0c2435"></path><path d="M484 237.1L446 215.1L416 247.4Z" fill="#19435d" stroke="#19435d"></path><path d="M416 247.4L439 205L394 230Z" fill="#1d4e6b" stroke="#1d4e6b"></path><path d="M328 144.3L370 228L378 222.1Z" fill="#15384f" stroke="#15384f"></path><path d="M370 228L343 238.4L388 251.9Z" fill="#081a28" stroke="#081a28"></path><path d="M388 251.9L326 309.7L426 276Z" fill="#0c2435" stroke="#0c2435"></path><path d="M446 215.1L439 205L416 247.4Z" fill="#081a28" stroke="#081a28"></path><path d="M484 237.1L472 217.4L446 215.1Z" fill="#246688" stroke="#246688"></path><path d="M446 215.1L483 202.4L439 205Z" fill="#297ea6" stroke="#297ea6"></path><path d="M426 276L484 237.1L416 247.4Z" fill="#297ea6" stroke="#297ea6"></path><path d="M468 350.9L484 304.3L426 276Z" fill="#297ea6" stroke="#297ea6"></path><path d="M426 276L484 304.3L484 237.1Z" fill="#205a7a" stroke="#205a7a"></path><path d="M343 238.4L326 309.7L388 251.9Z" fill="#246688" stroke="#246688"></path><path d="M343 238.4L310 297.9L326 309.7Z" fill="#277297" stroke="#277297"></path><path d="M484 237.1L483 202.4L472 217.4Z" fill="#277297" stroke="#277297"></path><path d="M472 217.4L483 202.4L446 215.1Z" fill="#1d4e6b" stroke="#1d4e6b"></path><path d="M439 205L399 162.7L396 201.6Z" fill="#112e42" stroke="#112e42"></path><path d="M484 304.3L503 295.9L484 237.1Z" fill="#205a7a" stroke="#205a7a"></path><path d="M484 237.1L507 236.4L483 202.4Z" fill="#0c2435" stroke="#0c2435"></path><path d="M420 377.6L468 350.9L426 276Z" fill="#297ea6" stroke="#297ea6"></path><path d="M484 304.3L507 338.6L503 295.9Z" fill="#00101c" stroke="#00101c"></path><path d="M433 148.4L399 162.7L439 205Z" fill="#246688" stroke="#246688"></path><path d="M396 201.6L328 144.3L378 222.1Z" fill="#205a7a" stroke="#205a7a"></path><path d="M503 295.9L507 236.4L484 237.1Z" fill="#277297" stroke="#277297"></path><path d="M326 309.7L420 377.6L426 276Z" fill="#19435d" stroke="#19435d"></path><path d="M539 220L487 182.3L483 202.4Z" fill="#15384f" stroke="#15384f"></path><path d="M483 202.4L475 171.1L439 205Z" fill="#0c2435" stroke="#0c2435"></path><path d="M487 182.3L475 171.1L483 202.4Z" fill="#277297" stroke="#277297"></path><path d="M405 137.6L388 147.3L399 162.7Z" fill="#1d4e6b" stroke="#1d4e6b"></path><path d="M399 162.7L388 147.3L396 201.6Z" fill="#112e42" stroke="#112e42"></path><path d="M343 238.4L262 250.3L310 297.9Z" fill="#112e42" stroke="#112e42"></path><path d="M465 155.3L433 148.4L439 205Z" fill="#297ea6" stroke="#297ea6"></path><path d="M311 366L365 383.6L326 309.7Z" fill="#1d4e6b" stroke="#1d4e6b"></path><path d="M326 309.7L365 383.6L420 377.6Z" fill="#0c2435" stroke="#0c2435"></path><path d="M487 182.3L481 170.6L475 171.1Z" fill="#00101c" stroke="#00101c"></path><path d="M475 171.1L465 155.3L439 205Z" fill="#15384f" stroke="#15384f"></path><path d="M468 350.9L507 338.6L484 304.3Z" fill="#1d4e6b" stroke="#1d4e6b"></path><path d="M503 295.9L539 220L507 236.4Z" fill="#1d4e6b" stroke="#1d4e6b"></path><path d="M523 353.7L507 338.6L468 350.9Z" fill="#0c2435" stroke="#0c2435"></path><path d="M481 170.6L465 155.3L475 171.1Z" fill="#15384f" stroke="#15384f"></path><path d="M444 393.4L462 381.7L420 377.6Z" fill="#205a7a" stroke="#205a7a"></path><path d="M420 377.6L462 381.7L468 350.9Z" fill="#205a7a" stroke="#205a7a"></path><path d="M287 201L286 216.3L343 238.4Z" fill="#205a7a" stroke="#205a7a"></path><path d="M449 121.9L405 137.6L433 148.4Z" fill="#112e42" stroke="#112e42"></path><path d="M433 148.4L405 137.6L399 162.7Z" fill="#246688" stroke="#246688"></path><path d="M417 424.4L444 393.4L420 377.6Z" fill="#19435d" stroke="#19435d"></path><path d="M262 250.3L273 289.3L310 297.9Z" fill="#00101c" stroke="#00101c"></path><path d="M310 297.9L311 366L326 309.7Z" fill="#081a28" stroke="#081a28"></path><path d="M328 144.3L343 238.4L370 228Z" fill="#277297" stroke="#277297"></path><path d="M286 216.3L262 250.3L343 238.4Z" fill="#205a7a" stroke="#205a7a"></path><path d="M285 198.1L287 201L328 144.3Z" fill="#277297" stroke="#277297"></path><path d="M256 297.7L311 366L310 297.9Z" fill="#297ea6" stroke="#297ea6"></path><path d="M328 144.3L396 201.6L388 147.3Z" fill="#277297" stroke="#277297"></path><path d="M287 201L285 198.1L286 216.3Z" fill="#205a7a" stroke="#205a7a"></path><path d="M601 297.3L539 220L503 295.9Z" fill="#277297" stroke="#277297"></path><path d="M507 236.4L539 220L483 202.4Z" fill="#0c2435" stroke="#0c2435"></path><path d="M545 172.4L491 130.7L481 170.6Z" fill="#297ea6" stroke="#297ea6"></path><path d="M491 130.7L449 121.9L465 155.3Z" fill="#277297" stroke="#277297"></path><path d="M238 199.1L262 250.3L286 216.3Z" fill="#277297" stroke="#277297"></path><path d="M342 114.7L328 144.3L388 147.3Z" fill="#081a28" stroke="#081a28"></path><path d="M462 381.7L523 353.7L468 350.9Z" fill="#112e42" stroke="#112e42"></path><path d="M507 338.6L557 354L503 295.9Z" fill="#112e42" stroke="#112e42"></path><path d="M488 419.6L523 353.7L462 381.7Z" fill="#112e42" stroke="#112e42"></path><path d="M262 250.3L256 297.7L273 289.3Z" fill="#19435d" stroke="#19435d"></path><path d="M273 289.3L256 297.7L310 297.9Z" fill="#19435d" stroke="#19435d"></path><path d="M491 130.7L465 155.3L481 170.6Z" fill="#00101c" stroke="#00101c"></path><path d="M465 155.3L449 121.9L433 148.4Z" fill="#0c2435" stroke="#0c2435"></path><path d="M405 137.6L342 114.7L388 147.3Z" fill="#246688" stroke="#246688"></path><path d="M381 438.9L417 424.4L365 383.6Z" fill="#0c2435" stroke="#0c2435"></path><path d="M365 383.6L417 424.4L420 377.6Z" fill="#1d4e6b" stroke="#1d4e6b"></path><path d="M444 393.4L488 419.6L462 381.7Z" fill="#277297" stroke="#277297"></path><path d="M545 172.4L481 170.6L487 182.3Z" fill="#246688" stroke="#246688"></path><path d="M347 80.9L342 114.7L405 137.6Z" fill="#297ea6" stroke="#297ea6"></path><path d="M275 135.4L238 199.1L285 198.1Z" fill="#0c2435" stroke="#0c2435"></path><path d="M491 130.7L459 107.7L449 121.9Z" fill="#246688" stroke="#246688"></path><path d="M449 121.9L459 107.7L405 137.6Z" fill="#0c2435" stroke="#0c2435"></path><path d="M577 180.1L545 172.4L539 220Z" fill="#205a7a" stroke="#205a7a"></path><path d="M539 220L545 172.4L487 182.3Z" fill="#15384f" stroke="#15384f"></path><path d="M327 439.9L381 438.9L365 383.6Z" fill="#297ea6" stroke="#297ea6"></path><path d="M488 441.4L488 419.6L417 424.4Z" fill="#277297" stroke="#277297"></path><path d="M417 424.4L488 419.6L444 393.4Z" fill="#081a28" stroke="#081a28"></path><path d="M548 371.6L557 354L523 353.7Z" fill="#19435d" stroke="#19435d"></path><path d="M523 353.7L557 354L507 338.6Z" fill="#15384f" stroke="#15384f"></path><path d="M528 408.9L548 371.6L523 353.7Z" fill="#1d4e6b" stroke="#1d4e6b"></path><path d="M275 135.4L285 198.1L328 144.3Z" fill="#277297" stroke="#277297"></path><path d="M285 198.1L238 199.1L286 216.3Z" fill="#297ea6" stroke="#297ea6"></path><path d="M262 250.3L225 239.1L256 297.7Z" fill="#19435d" stroke="#19435d"></path><path d="M342 114.7L299 120.9L328 144.3Z" fill="#0c2435" stroke="#0c2435"></path><path d="M223 225.6L225 239.1L262 250.3Z" fill="#1d4e6b" stroke="#1d4e6b"></path><path d="M274 400.6L305 420.4L311 366Z" fill="#15384f" stroke="#15384f"></path><path d="M311 366L305 420.4L365 383.6Z" fill="#297ea6" stroke="#297ea6"></path><path d="M235 335L311 366L256 297.7Z" fill="#0c2435" stroke="#0c2435"></path><path d="M175 285.1L235 335L256 297.7Z" fill="#1d4e6b" stroke="#1d4e6b"></path><path d="M299 120.9L275 135.4L328 144.3Z" fill="#081a28" stroke="#081a28"></path><path d="M238 199.1L223 225.6L262 250.3Z" fill="#19435d" stroke="#19435d"></path><path d="M225 239.1L189 250.9L256 297.7Z" fill="#112e42" stroke="#112e42"></path><path d="M235 335L274 400.6L311 366Z" fill="#297ea6" stroke="#297ea6"></path><path d="M387 469.6L397 454.3L381 438.9Z" fill="#081a28" stroke="#081a28"></path><path d="M381 438.9L397 454.3L417 424.4Z" fill="#00101c" stroke="#00101c"></path><path d="M523 419.7L528 408.9L488 419.6Z" fill="#277297" stroke="#277297"></path><path d="M488 419.6L528 408.9L523 353.7Z" fill="#277297" stroke="#277297"></path><path d="M570 130.6L502 105.9L491 130.7Z" fill="#205a7a" stroke="#205a7a"></path><path d="M491 130.7L502 105.9L459 107.7Z" fill="#00101c" stroke="#00101c"></path><path d="M260 474.1L327 439.9L305 420.4Z" fill="#112e42" stroke="#112e42"></path><path d="M305 420.4L327 439.9L365 383.6Z" fill="#205a7a" stroke="#205a7a"></path><path d="M601 297.3L588 209.1L539 220Z" fill="#205a7a" stroke="#205a7a"></path><path d="M545 172.4L570 130.6L491 130.7Z" fill="#246688" stroke="#246688"></path><path d="M488 441.4L523 419.7L488 419.6Z" fill="#297ea6" stroke="#297ea6"></path><path d="M528 408.9L555 390.9L548 371.6Z" fill="#1d4e6b" stroke="#1d4e6b"></path><path d="M397 454.3L488 441.4L417 424.4Z" fill="#1d4e6b" stroke="#1d4e6b"></path><path d="M588 209.1L577 180.1L539 220Z" fill="#081a28" stroke="#081a28"></path><path d="M563 441.7L555 390.9L528 408.9Z" fill="#19435d" stroke="#19435d"></path><path d="M548 371.6L555 390.9L557 354Z" fill="#246688" stroke="#246688"></path><path d="M557 354L593 325.7L503 295.9Z" fill="#00101c" stroke="#00101c"></path><path d="M459 107.7L347 80.9L405 137.6Z" fill="#19435d" stroke="#19435d"></path><path d="M342 114.7L347 80.9L299 120.9Z" fill="#205a7a" stroke="#205a7a"></path><path d="M229 111.4L228 140.4L275 135.4Z" fill="#112e42" stroke="#112e42"></path><path d="M426 19.9L347 80.9L459 107.7Z" fill="#297ea6" stroke="#297ea6"></path><path d="M601 386.4L593 325.7L557 354Z" fill="#00101c" stroke="#00101c"></path><path d="M593 325.7L601 297.3L503 295.9Z" fill="#0c2435" stroke="#0c2435"></path><path d="M649 194.4L578 168.3L577 180.1Z" fill="#00101c" stroke="#00101c"></path><path d="M577 180.1L578 168.3L545 172.4Z" fill="#246688" stroke="#246688"></path><path d="M327 439.9L387 469.6L381 438.9Z" fill="#0c2435" stroke="#0c2435"></path><path d="M397 454.3L431 512.6L488 441.4Z" fill="#15384f" stroke="#15384f"></path><path d="M398 494.1L391 472.3L387 469.6Z" fill="#081a28" stroke="#081a28"></path><path d="M387 469.6L391 472.3L397 454.3Z" fill="#0c2435" stroke="#0c2435"></path><path d="M232 403.7L263 421.4L274 400.6Z" fill="#19435d" stroke="#19435d"></path><path d="M274 400.6L263 421.4L305 420.4Z" fill="#19435d" stroke="#19435d"></path><path d="M362 523.3L398 494.1L387 469.6Z" fill="#112e42" stroke="#112e42"></path><path d="M578 168.3L570 130.6L545 172.4Z" fill="#1d4e6b" stroke="#1d4e6b"></path><path d="M579 104.9L570 130.6L659 125.7Z" fill="#081a28" stroke="#081a28"></path><path d="M169 165.6L189 250.9L223 225.6Z" fill="#297ea6" stroke="#297ea6"></path><path d="M223 225.6L189 250.9L225 239.1Z" fill="#0c2435" stroke="#0c2435"></path><path d="M235 335L232 403.7L274 400.6Z" fill="#277297" stroke="#277297"></path><path d="M169 165.6L223 225.6L238 199.1Z" fill="#15384f" stroke="#15384f"></path><path d="M229 111.4L275 135.4L299 120.9Z" fill="#246688" stroke="#246688"></path><path d="M275 135.4L228 140.4L238 199.1Z" fill="#00101c" stroke="#00101c"></path><path d="M202 373.7L232 403.7L235 335Z" fill="#1d4e6b" stroke="#1d4e6b"></path><path d="M673 275L627 237.4L601 297.3Z" fill="#081a28" stroke="#081a28"></path><path d="M601 297.3L627 237.4L588 209.1Z" fill="#0c2435" stroke="#0c2435"></path><path d="M588 209.1L649 194.4L577 180.1Z" fill="#1d4e6b" stroke="#1d4e6b"></path><path d="M362 523.3L387 469.6L327 439.9Z" fill="#081a28" stroke="#081a28"></path><path d="M391 472.3L414 504.3L397 454.3Z" fill="#1d4e6b" stroke="#1d4e6b"></path><path d="M154 340.9L202 373.7L235 335Z" fill="#00101c" stroke="#00101c"></path><path d="M555 390.9L601 386.4L557 354Z" fill="#15384f" stroke="#15384f"></path><path d="M593 325.7L649 356.1L601 297.3Z" fill="#19435d" stroke="#19435d"></path><path d="M563 441.7L601 386.4L555 390.9Z" fill="#081a28" stroke="#081a28"></path><path d="M563 441.7L528 408.9L523 419.7Z" fill="#081a28" stroke="#081a28"></path><path d="M563 441.7L523 419.7L488 441.4Z" fill="#112e42" stroke="#112e42"></path><path d="M545 74.4L519 67.7L502 105.9Z" fill="#246688" stroke="#246688"></path><path d="M502 105.9L468 43.6L459 107.7Z" fill="#246688" stroke="#246688"></path><path d="M99 242L175 285.1L189 250.9Z" fill="#246688" stroke="#246688"></path><path d="M189 250.9L175 285.1L256 297.7Z" fill="#15384f" stroke="#15384f"></path><path d="M627 237.4L630 217.3L588 209.1Z" fill="#0c2435" stroke="#0c2435"></path><path d="M519 67.7L468 43.6L502 105.9Z" fill="#19435d" stroke="#19435d"></path><path d="M292 41.7L299 120.9L347 80.9Z" fill="#00101c" stroke="#00101c"></path><path d="M292 41.7L229 111.4L299 120.9Z" fill="#277297" stroke="#277297"></path><path d="M228 140.4L169 165.6L238 199.1Z" fill="#246688" stroke="#246688"></path><path d="M200 392.6L207 394.9L202 373.7Z" fill="#19435d" stroke="#19435d"></path><path d="M202 373.7L207 394.9L232 403.7Z" fill="#15384f" stroke="#15384f"></path><path d="M232 403.7L231 426.3L263 421.4Z" fill="#277297" stroke="#277297"></path><path d="M263 421.4L260 474.1L305 420.4Z" fill="#205a7a" stroke="#205a7a"></path><path d="M516 510.1L563 441.7L488 441.4Z" fill="#277297" stroke="#277297"></path><path d="M207 394.9L231 426.3L232 403.7Z" fill="#1d4e6b" stroke="#1d4e6b"></path><path d="M386 543.1L414 504.3L398 494.1Z" fill="#19435d" stroke="#19435d"></path><path d="M398 494.1L414 504.3L391 472.3Z" fill="#277297" stroke="#277297"></path><path d="M570 130.6L545 74.4L502 105.9Z" fill="#205a7a" stroke="#205a7a"></path><path d="M655 162.6L570 130.6L578 168.3Z" fill="#0c2435" stroke="#0c2435"></path><path d="M579 104.9L545 74.4L570 130.6Z" fill="#15384f" stroke="#15384f"></path><path d="M502 30.9L457 29.6L468 43.6Z" fill="#0c2435" stroke="#0c2435"></path><path d="M133 401.4L200 392.6L202 373.7Z" fill="#15384f" stroke="#15384f"></path><path d="M207 394.9L179 425.6L231 426.3Z" fill="#081a28" stroke="#081a28"></path><path d="M502 30.9L468 43.6L519 67.7Z" fill="#1d4e6b" stroke="#1d4e6b"></path><path d="M468 43.6L426 19.9L459 107.7Z" fill="#0c2435" stroke="#0c2435"></path><path d="M386 543.1L431 512.6L414 504.3Z" fill="#205a7a" stroke="#205a7a"></path><path d="M414 504.3L431 512.6L397 454.3Z" fill="#277297" stroke="#277297"></path><path d="M457 29.6L426 19.9L468 43.6Z" fill="#1d4e6b" stroke="#1d4e6b"></path><path d="M347 0L292 41.7L347 80.9Z" fill="#205a7a" stroke="#205a7a"></path><path d="M211 525.3L260 474.1L231 426.3Z" fill="#205a7a" stroke="#205a7a"></path><path d="M231 426.3L260 474.1L263 421.4Z" fill="#0c2435" stroke="#0c2435"></path><path d="M673 275L649 194.4L630 217.3Z" fill="#205a7a" stroke="#205a7a"></path><path d="M630 217.3L649 194.4L588 209.1Z" fill="#00101c" stroke="#00101c"></path><path d="M673 275L630 217.3L627 237.4Z" fill="#15384f" stroke="#15384f"></path><path d="M545 74.4L502 30.9L519 67.7Z" fill="#112e42" stroke="#112e42"></path><path d="M440 0L406 0L426 19.9Z" fill="#0c2435" stroke="#0c2435"></path><path d="M507 14.7L502 30.9L545 74.4Z" fill="#246688" stroke="#246688"></path><path d="M165 106.6L228 140.4L229 111.4Z" fill="#00101c" stroke="#00101c"></path><path d="M165 106.6L169 165.6L228 140.4Z" fill="#00101c" stroke="#00101c"></path><path d="M358 525.3L362 523.3L327 439.9Z" fill="#1d4e6b" stroke="#1d4e6b"></path><path d="M658 394.7L649 356.1L601 386.4Z" fill="#081a28" stroke="#081a28"></path><path d="M601 386.4L649 356.1L593 325.7Z" fill="#297ea6" stroke="#297ea6"></path><path d="M175 285.1L154 340.9L235 335Z" fill="#112e42" stroke="#112e42"></path><path d="M200 392.6L179 425.6L207 394.9Z" fill="#1d4e6b" stroke="#1d4e6b"></path><path d="M99 346.6L154 340.9L96 337.7Z" fill="#0c2435" stroke="#0c2435"></path><path d="M316 541.4L358 525.3L327 439.9Z" fill="#205a7a" stroke="#205a7a"></path><path d="M386 543.1L453 530.3L431 512.6Z" fill="#205a7a" stroke="#205a7a"></path><path d="M659 125.7L592 83.6L579 104.9Z" fill="#297ea6" stroke="#297ea6"></path><path d="M579 104.9L592 83.6L545 74.4Z" fill="#297ea6" stroke="#297ea6"></path><path d="M490 522.1L488 441.4L431 512.6Z" fill="#1d4e6b" stroke="#1d4e6b"></path><path d="M490 522.1L516 510.1L488 441.4Z" fill="#15384f" stroke="#15384f"></path><path d="M563 441.7L631 415.4L601 386.4Z" fill="#00101c" stroke="#00101c"></path><path d="M386 543.1L398 494.1L362 523.3Z" fill="#205a7a" stroke="#205a7a"></path><path d="M440 0L426 19.9L444 0Z" fill="#205a7a" stroke="#205a7a"></path><path d="M426 19.9L406 0L347 80.9Z" fill="#00101c" stroke="#00101c"></path><path d="M649 356.1L673 275L601 297.3Z" fill="#15384f" stroke="#15384f"></path><path d="M453 530.3L490 522.1L431 512.6Z" fill="#297ea6" stroke="#297ea6"></path><path d="M444 0L426 19.9L457 29.6Z" fill="#00101c" stroke="#00101c"></path><path d="M467 0L444 0L457 29.6Z" fill="#081a28" stroke="#081a28"></path><path d="M664 423.6L631 415.4L670 449.6Z" fill="#00101c" stroke="#00101c"></path><path d="M715 195.3L655 162.6L649 194.4Z" fill="#1d4e6b" stroke="#1d4e6b"></path><path d="M649 194.4L655 162.6L578 168.3Z" fill="#081a28" stroke="#081a28"></path><path d="M307 7.7L275 28.6L292 41.7Z" fill="#277297" stroke="#277297"></path><path d="M292 41.7L275 28.6L229 111.4Z" fill="#246688" stroke="#246688"></path><path d="M519 0L507 14.7L545 74.4Z" fill="#081a28" stroke="#081a28"></path><path d="M502 30.9L467 0L457 29.6Z" fill="#205a7a" stroke="#205a7a"></path><path d="M406 0L347 0L347 80.9Z" fill="#277297" stroke="#277297"></path><path d="M507 14.7L467 0L502 30.9Z" fill="#246688" stroke="#246688"></path><path d="M133 401.4L179 425.6L200 392.6Z" fill="#00101c" stroke="#00101c"></path><path d="M347 594.1L386 543.1L358 525.3Z" fill="#0c2435" stroke="#0c2435"></path><path d="M358 525.3L386 543.1L362 523.3Z" fill="#246688" stroke="#246688"></path><path d="M347 0L307 7.7L292 41.7Z" fill="#1d4e6b" stroke="#1d4e6b"></path><path d="M664 423.6L658 394.7L631 415.4Z" fill="#0c2435" stroke="#0c2435"></path><path d="M631 415.4L658 394.7L601 386.4Z" fill="#15384f" stroke="#15384f"></path><path d="M649 356.1L683 341L673 275Z" fill="#277297" stroke="#277297"></path><path d="M115 177.3L126 207L169 165.6Z" fill="#081a28" stroke="#081a28"></path><path d="M169 165.6L126 207L189 250.9Z" fill="#081a28" stroke="#081a28"></path><path d="M700 362.6L683 341L649 356.1Z" fill="#297ea6" stroke="#297ea6"></path><path d="M312 566.4L316 541.4L259 600Z" fill="#246688" stroke="#246688"></path><path d="M260 474.1L316 541.4L327 439.9Z" fill="#081a28" stroke="#081a28"></path><path d="M187 72.9L165 106.6L229 111.4Z" fill="#246688" stroke="#246688"></path><path d="M550 -11.1L519 0L545 74.4Z" fill="#00101c" stroke="#00101c"></path><path d="M507 14.7L518 -5.1L467 0Z" fill="#0c2435" stroke="#0c2435"></path><path d="M711 125.9L659 125.7L655 162.6Z" fill="#1d4e6b" stroke="#1d4e6b"></path><path d="M655 162.6L659 125.7L570 130.6Z" fill="#112e42" stroke="#112e42"></path><path d="M550 -11.1L518 -5.1L519 0Z" fill="#1d4e6b" stroke="#1d4e6b"></path><path d="M715 195.3L649 194.4L673 275Z" fill="#277297" stroke="#277297"></path><path d="M218 0L187 72.9L275 28.6Z" fill="#0c2435" stroke="#0c2435"></path><path d="M275 28.6L187 72.9L229 111.4Z" fill="#081a28" stroke="#081a28"></path><path d="M550 -11.1L545 74.4L592 83.6Z" fill="#277297" stroke="#277297"></path><path d="M519 0L518 -5.1L507 14.7Z" fill="#246688" stroke="#246688"></path><path d="M467 0L518 -5.1L444 0Z" fill="#15384f" stroke="#15384f"></path><path d="M444 0L550 -11.1L440 0Z" fill="#19435d" stroke="#19435d"></path><path d="M440 0L550 -11.1L406 0Z" fill="#00101c" stroke="#00101c"></path><path d="M406 0L130 -54.1L347 0Z" fill="#0c2435" stroke="#0c2435"></path><path d="M187 72.9L162 87.7L165 106.6Z" fill="#081a28" stroke="#081a28"></path><path d="M148 99.6L115 177.3L169 165.6Z" fill="#205a7a" stroke="#205a7a"></path><path d="M670 449.6L631 415.4L563 441.7Z" fill="#205a7a" stroke="#205a7a"></path><path d="M658 394.7L700 362.6L649 356.1Z" fill="#19435d" stroke="#19435d"></path><path d="M154 340.9L133 401.4L202 373.7Z" fill="#19435d" stroke="#19435d"></path><path d="M211 525.3L316 541.4L260 474.1Z" fill="#00101c" stroke="#00101c"></path><path d="M99 346.6L133 401.4L154 340.9Z" fill="#0c2435" stroke="#0c2435"></path><path d="M148 99.6L169 165.6L165 106.6Z" fill="#297ea6" stroke="#297ea6"></path><path d="M126 207L102 232.3L189 250.9Z" fill="#0c2435" stroke="#0c2435"></path><path d="M307 7.7L261 0L275 28.6Z" fill="#0c2435" stroke="#0c2435"></path><path d="M187 72.9L146 51.9L162 87.7Z" fill="#297ea6" stroke="#297ea6"></path><path d="M347 0L261 0L307 7.7Z" fill="#0c2435" stroke="#0c2435"></path><path d="M130 -54.1L261 0L347 0Z" fill="#246688" stroke="#246688"></path><path d="M115 177.3L102 232.3L126 207Z" fill="#00101c" stroke="#00101c"></path><path d="M533 600L569 525.3L516 510.1Z" fill="#1d4e6b" stroke="#1d4e6b"></path><path d="M516 510.1L569 525.3L563 441.7Z" fill="#205a7a" stroke="#205a7a"></path><path d="M533 600L516 510.1L490 522.1Z" fill="#246688" stroke="#246688"></path><path d="M474 600L490 522.1L453 530.3Z" fill="#277297" stroke="#277297"></path><path d="M162 87.7L148 99.6L165 106.6Z" fill="#112e42" stroke="#112e42"></path><path d="M146 51.9L148 99.6L162 87.7Z" fill="#205a7a" stroke="#205a7a"></path><path d="M62 270.3L99 242L102 232.3Z" fill="#15384f" stroke="#15384f"></path><path d="M102 232.3L99 242L189 250.9Z" fill="#205a7a" stroke="#205a7a"></path><path d="M713 265.9L712 266.4L724 332.7Z" fill="#1d4e6b" stroke="#1d4e6b"></path><path d="M724 332.7L712 266.4L673 275Z" fill="#277297" stroke="#277297"></path><path d="M724 332.7L673 275L683 341Z" fill="#15384f" stroke="#15384f"></path><path d="M712 266.4L715 195.3L673 275Z" fill="#081a28" stroke="#081a28"></path><path d="M703 412.7L700 362.6L658 394.7Z" fill="#277297" stroke="#277297"></path><path d="M211 525.3L231 426.3L179 425.6Z" fill="#00101c" stroke="#00101c"></path><path d="M316 541.4L347 594.1L358 525.3Z" fill="#19435d" stroke="#19435d"></path><path d="M386 543.1L448 600L453 530.3Z" fill="#246688" stroke="#246688"></path><path d="M626 0L550 -11.1L592 83.6Z" fill="#297ea6" stroke="#297ea6"></path><path d="M518 -5.1L550 -11.1L444 0Z" fill="#0c2435" stroke="#0c2435"></path><path d="M96 337.7L154 340.9L175 285.1Z" fill="#277297" stroke="#277297"></path><path d="M703 412.7L706 363L700 362.6Z" fill="#00101c" stroke="#00101c"></path><path d="M700 362.6L724 332.7L683 341Z" fill="#112e42" stroke="#112e42"></path><path d="M99 242L96 337.7L175 285.1Z" fill="#246688" stroke="#246688"></path><path d="M713 265.9L715 195.3L712 266.4Z" fill="#19435d" stroke="#19435d"></path><path d="M659 125.7L676 98.7L592 83.6Z" fill="#112e42" stroke="#112e42"></path><path d="M711 125.9L676 98.7L659 125.7Z" fill="#15384f" stroke="#15384f"></path><path d="M665 509.4L670 449.6L563 441.7Z" fill="#112e42" stroke="#112e42"></path><path d="M664 423.6L703 412.7L658 394.7Z" fill="#205a7a" stroke="#205a7a"></path><path d="M171 517.1L211 525.3L179 425.6Z" fill="#081a28" stroke="#081a28"></path><path d="M732 345.1L724 332.7L706 363Z" fill="#297ea6" stroke="#297ea6"></path><path d="M706 363L724 332.7L700 362.6Z" fill="#00101c" stroke="#00101c"></path><path d="M713 265.9L763 243.9L715 195.3Z" fill="#205a7a" stroke="#205a7a"></path><path d="M130 -54.1L218 0L261 0Z" fill="#15384f" stroke="#15384f"></path><path d="M261 0L218 0L275 28.6Z" fill="#246688" stroke="#246688"></path><path d="M670 449.6L703 412.7L664 423.6Z" fill="#19435d" stroke="#19435d"></path><path d="M320 600L347 594.1L312 566.4Z" fill="#205a7a" stroke="#205a7a"></path><path d="M312 566.4L347 594.1L316 541.4Z" fill="#19435d" stroke="#19435d"></path><path d="M130 -54.1L207 0L218 0Z" fill="#0c2435" stroke="#0c2435"></path><path d="M218 0L207 0L187 72.9Z" fill="#15384f" stroke="#15384f"></path><path d="M356 600L392 600L386 543.1Z" fill="#1d4e6b" stroke="#1d4e6b"></path><path d="M99 346.6L94 386.9L133 401.4Z" fill="#205a7a" stroke="#205a7a"></path><path d="M120 491.3L171 517.1L179 425.6Z" fill="#081a28" stroke="#081a28"></path><path d="M82 353.1L94 386.9L99 346.6Z" fill="#1d4e6b" stroke="#1d4e6b"></path><path d="M82 353.1L99 346.6L96 337.7Z" fill="#277297" stroke="#277297"></path><path d="M703 412.7L722 371.7L706 363Z" fill="#112e42" stroke="#112e42"></path><path d="M73 356.7L82 353.1L48 336.7Z" fill="#00101c" stroke="#00101c"></path><path d="M392 600L448 600L386 543.1Z" fill="#246688" stroke="#246688"></path><path d="M320 600L356 600L347 594.1Z" fill="#0c2435" stroke="#0c2435"></path><path d="M347 594.1L356 600L386 543.1Z" fill="#112e42" stroke="#112e42"></path><path d="M722 371.7L732 345.1L706 363Z" fill="#00101c" stroke="#00101c"></path><path d="M724 332.7L768 292L713 265.9Z" fill="#0c2435" stroke="#0c2435"></path><path d="M183 0L146 51.9L187 72.9Z" fill="#277297" stroke="#277297"></path><path d="M148 99.6L80 127.7L115 177.3Z" fill="#1d4e6b" stroke="#1d4e6b"></path><path d="M0 208L62 270.3L102 232.3Z" fill="#277297" stroke="#277297"></path><path d="M715 195.3L711 125.9L655 162.6Z" fill="#246688" stroke="#246688"></path><path d="M676 98.7L689 73.4L592 83.6Z" fill="#15384f" stroke="#15384f"></path><path d="M737 95.6L711 125.9L765 141.9Z" fill="#15384f" stroke="#15384f"></path><path d="M448 600L467 600L453 530.3Z" fill="#19435d" stroke="#19435d"></path><path d="M467 600L474 600L453 530.3Z" fill="#297ea6" stroke="#297ea6"></path><path d="M735 438.3L713 429.3L742 490.1Z" fill="#246688" stroke="#246688"></path><path d="M120 491.3L179 425.6L133 401.4Z" fill="#112e42" stroke="#112e42"></path><path d="M259 600L320 600L312 566.4Z" fill="#112e42" stroke="#112e42"></path><path d="M99 242L62 270.3L96 337.7Z" fill="#297ea6" stroke="#297ea6"></path><path d="M49 164.3L102 232.3L115 177.3Z" fill="#0c2435" stroke="#0c2435"></path><path d="M82 353.1L84 389L94 386.9Z" fill="#15384f" stroke="#15384f"></path><path d="M94 386.9L90 468.3L133 401.4Z" fill="#19435d" stroke="#19435d"></path><path d="M73 356.7L84 389L82 353.1Z" fill="#0c2435" stroke="#0c2435"></path><path d="M259 600L316 541.4L211 525.3Z" fill="#081a28" stroke="#081a28"></path><path d="M48 336.7L82 353.1L96 337.7Z" fill="#246688" stroke="#246688"></path><path d="M711 125.9L689 73.4L676 98.7Z" fill="#246688" stroke="#246688"></path><path d="M722 371.7L741 341.1L732 345.1Z" fill="#0c2435" stroke="#0c2435"></path><path d="M732 345.1L741 341.1L724 332.7Z" fill="#246688" stroke="#246688"></path><path d="M751 401.6L741 341.1L722 371.7Z" fill="#112e42" stroke="#112e42"></path><path d="M672 16.7L626 0L592 83.6Z" fill="#00101c" stroke="#00101c"></path><path d="M207 0L183 0L187 72.9Z" fill="#19435d" stroke="#19435d"></path><path d="M130 -54.1L183 0L207 0Z" fill="#205a7a" stroke="#205a7a"></path><path d="M670 449.6L713 429.3L703 412.7Z" fill="#00101c" stroke="#00101c"></path><path d="M703 412.7L751 401.6L722 371.7Z" fill="#246688" stroke="#246688"></path><path d="M665 509.4L563 441.7L569 525.3Z" fill="#15384f" stroke="#15384f"></path><path d="M117 18.7L105 88.4L146 51.9Z" fill="#205a7a" stroke="#205a7a"></path><path d="M146 51.9L105 88.4L148 99.6Z" fill="#19435d" stroke="#19435d"></path><path d="M170 536.4L207 559.3L211 525.3Z" fill="#15384f" stroke="#15384f"></path><path d="M105 88.4L80 127.7L148 99.6Z" fill="#19435d" stroke="#19435d"></path><path d="M663 538.1L665 509.4L569 525.3Z" fill="#1d4e6b" stroke="#1d4e6b"></path><path d="M474 600L533 600L490 522.1Z" fill="#246688" stroke="#246688"></path><path d="M120 491.3L170 536.4L171 517.1Z" fill="#246688" stroke="#246688"></path><path d="M171 517.1L170 536.4L211 525.3Z" fill="#297ea6" stroke="#297ea6"></path><path d="M768 292L763 243.9L713 265.9Z" fill="#081a28" stroke="#081a28"></path><path d="M719 68.7L672 16.7L689 73.4Z" fill="#277297" stroke="#277297"></path><path d="M533 600L545 600L569 525.3Z" fill="#1d4e6b" stroke="#1d4e6b"></path><path d="M90 468.3L120 491.3L133 401.4Z" fill="#205a7a" stroke="#205a7a"></path><path d="M207 559.3L259 600L211 525.3Z" fill="#246688" stroke="#246688"></path><path d="M283 625.1L259 600L162 600Z" fill="#15384f" stroke="#15384f"></path><path d="M41 320.7L96 337.7L62 270.3Z" fill="#246688" stroke="#246688"></path><path d="M41 320.7L48 336.7L96 337.7Z" fill="#277297" stroke="#277297"></path><path d="M73 356.7L0 408.4L84 389Z" fill="#00101c" stroke="#00101c"></path><path d="M84 389L90 468.3L94 386.9Z" fill="#205a7a" stroke="#205a7a"></path><path d="M768 315L724 332.7L741 341.1Z" fill="#0c2435" stroke="#0c2435"></path><path d="M768 315L768 292L724 332.7Z" fill="#081a28" stroke="#081a28"></path><path d="M799 341L768 315L741 341.1Z" fill="#15384f" stroke="#15384f"></path><path d="M719 68.7L689 73.4L737 95.6Z" fill="#246688" stroke="#246688"></path><path d="M689 73.4L672 16.7L592 83.6Z" fill="#297ea6" stroke="#297ea6"></path><path d="M25 322.9L41 320.7L0 299.1Z" fill="#112e42" stroke="#112e42"></path><path d="M30 140.6L49 164.3L80 127.7Z" fill="#00101c" stroke="#00101c"></path><path d="M80 127.7L49 164.3L115 177.3Z" fill="#112e42" stroke="#112e42"></path><path d="M735 438.3L751 401.6L713 429.3Z" fill="#246688" stroke="#246688"></path><path d="M713 429.3L751 401.6L703 412.7Z" fill="#19435d" stroke="#19435d"></path><path d="M737 95.6L689 73.4L711 125.9Z" fill="#19435d" stroke="#19435d"></path><path d="M742 490.1L713 429.3L670 449.6Z" fill="#15384f" stroke="#15384f"></path><path d="M15 347.1L73 356.7L48 336.7Z" fill="#15384f" stroke="#15384f"></path><path d="M53 490.4L90 468.3L25 459.6Z" fill="#297ea6" stroke="#297ea6"></path><path d="M146 592.1L162 600L170 536.4Z" fill="#1d4e6b" stroke="#1d4e6b"></path><path d="M765 141.9L711 125.9L715 195.3Z" fill="#0c2435" stroke="#0c2435"></path><path d="M603 600L663 538.1L569 525.3Z" fill="#277297" stroke="#277297"></path><path d="M665 509.4L742 490.1L670 449.6Z" fill="#19435d" stroke="#19435d"></path><path d="M668 596.3L669 537.1L663 538.1Z" fill="#112e42" stroke="#112e42"></path><path d="M663 538.1L669 537.1L665 509.4Z" fill="#297ea6" stroke="#297ea6"></path><path d="M162 600L259 600L207 559.3Z" fill="#19435d" stroke="#19435d"></path><path d="M259 600L283 625.1L320 600Z" fill="#0c2435" stroke="#0c2435"></path><path d="M320 600L283 625.1L356 600Z" fill="#15384f" stroke="#15384f"></path><path d="M356 600L283 625.1L392 600Z" fill="#277297" stroke="#277297"></path><path d="M392 600L541 639.1L448 600Z" fill="#15384f" stroke="#15384f"></path><path d="M448 600L541 639.1L467 600Z" fill="#15384f" stroke="#15384f"></path><path d="M467 600L541 639.1L474 600Z" fill="#205a7a" stroke="#205a7a"></path><path d="M474 600L541 639.1L533 600Z" fill="#246688" stroke="#246688"></path><path d="M533 600L541 639.1L545 600Z" fill="#19435d" stroke="#19435d"></path><path d="M183 0L117 18.7L146 51.9Z" fill="#0c2435" stroke="#0c2435"></path><path d="M35 122.4L30 140.6L80 127.7Z" fill="#297ea6" stroke="#297ea6"></path><path d="M763 243.9L765 141.9L715 195.3Z" fill="#246688" stroke="#246688"></path><path d="M816 162.1L765 141.9L763 243.9Z" fill="#1d4e6b" stroke="#1d4e6b"></path><path d="M0 299.1L41 320.7L62 270.3Z" fill="#1d4e6b" stroke="#1d4e6b"></path><path d="M41 320.7L25 322.9L48 336.7Z" fill="#112e42" stroke="#112e42"></path><path d="M545 600L603 600L569 525.3Z" fill="#246688" stroke="#246688"></path><path d="M541 639.1L603 600L545 600Z" fill="#112e42" stroke="#112e42"></path><path d="M763 421.4L751 401.6L735 438.3Z" fill="#081a28" stroke="#081a28"></path><path d="M763 421.4L763 418.3L751 401.6Z" fill="#15384f" stroke="#15384f"></path><path d="M751 401.6L799 341L741 341.1Z" fill="#112e42" stroke="#112e42"></path><path d="M773 436.9L763 421.4L735 438.3Z" fill="#15384f" stroke="#15384f"></path><path d="M817 375.7L799 341L751 401.6Z" fill="#205a7a" stroke="#205a7a"></path><path d="M35 122.4L80 127.7L105 88.4Z" fill="#15384f" stroke="#15384f"></path><path d="M0 208L0 242.3L62 270.3Z" fill="#277297" stroke="#277297"></path><path d="M283 625.1L541 639.1L392 600Z" fill="#0c2435" stroke="#0c2435"></path><path d="M60 36.6L35 122.4L105 88.4Z" fill="#0c2435" stroke="#0c2435"></path><path d="M778 100.7L757 82.6L737 95.6Z" fill="#0c2435" stroke="#0c2435"></path><path d="M737 95.6L757 82.6L719 68.7Z" fill="#0c2435" stroke="#0c2435"></path><path d="M719 68.7L708 0L672 16.7Z" fill="#1d4e6b" stroke="#1d4e6b"></path><path d="M8 351.6L15 347.1L0 299.1Z" fill="#1d4e6b" stroke="#1d4e6b"></path><path d="M25 322.9L15 347.1L48 336.7Z" fill="#15384f" stroke="#15384f"></path><path d="M107 0L104 5.9L117 18.7Z" fill="#0c2435" stroke="#0c2435"></path><path d="M117 18.7L60 36.6L105 88.4Z" fill="#15384f" stroke="#15384f"></path><path d="M130 -54.1L107 0L183 0Z" fill="#112e42" stroke="#112e42"></path><path d="M183 0L107 0L117 18.7Z" fill="#081a28" stroke="#081a28"></path><path d="M104 5.9L60 36.6L117 18.7Z" fill="#15384f" stroke="#15384f"></path><path d="M768 315L823 320L768 292Z" fill="#205a7a" stroke="#205a7a"></path><path d="M768 292L811 233.1L763 243.9Z" fill="#19435d" stroke="#19435d"></path><path d="M765 141.9L778 100.7L737 95.6Z" fill="#00101c" stroke="#00101c"></path><path d="M817 375.7L751 401.6L763 418.3Z" fill="#205a7a" stroke="#205a7a"></path><path d="M736 533.3L742 490.1L665 509.4Z" fill="#297ea6" stroke="#297ea6"></path><path d="M763 421.4L773 436.9L763 418.3Z" fill="#15384f" stroke="#15384f"></path><path d="M736 533.3L665 509.4L669 537.1Z" fill="#15384f" stroke="#15384f"></path><path d="M626 0L740 -32.1L550 -11.1Z" fill="#19435d" stroke="#19435d"></path><path d="M672 16.7L708 0L626 0Z" fill="#112e42" stroke="#112e42"></path><path d="M772 38.7L708 0L719 68.7Z" fill="#0c2435" stroke="#0c2435"></path><path d="M742 490.1L773 436.9L735 438.3Z" fill="#112e42" stroke="#112e42"></path><path d="M0 208L49 164.3L0 195.4Z" fill="#081a28" stroke="#081a28"></path><path d="M0 208L102 232.3L49 164.3Z" fill="#19435d" stroke="#19435d"></path><path d="M0 299.1L15 347.1L25 322.9Z" fill="#277297" stroke="#277297"></path><path d="M15 347.1L0 408.4L73 356.7Z" fill="#1d4e6b" stroke="#1d4e6b"></path><path d="M0 242.3L0 299.1L62 270.3Z" fill="#1d4e6b" stroke="#1d4e6b"></path><path d="M823 320L811 233.1L768 292Z" fill="#0c2435" stroke="#0c2435"></path><path d="M799 109.6L778 100.7L765 141.9Z" fill="#277297" stroke="#277297"></path><path d="M757 82.6L772 38.7L719 68.7Z" fill="#112e42" stroke="#112e42"></path><path d="M0 195.4L49 164.3L30 140.6Z" fill="#246688" stroke="#246688"></path><path d="M-15 137.7L0 195.4L30 140.6Z" fill="#0c2435" stroke="#0c2435"></path><path d="M91 534.1L170 536.4L120 491.3Z" fill="#112e42" stroke="#112e42"></path><path d="M170 536.4L162 600L207 559.3Z" fill="#277297" stroke="#277297"></path><path d="M91 534.1L120 491.3L58 508.4Z" fill="#112e42" stroke="#112e42"></path><path d="M58 508.4L120 491.3L90 468.3Z" fill="#0c2435" stroke="#0c2435"></path><path d="M49 0L60 36.6L104 5.9Z" fill="#205a7a" stroke="#205a7a"></path><path d="M35 122.4L0 115.7L30 140.6Z" fill="#246688" stroke="#246688"></path><path d="M0 299.1L0 358.6L8 351.6Z" fill="#246688" stroke="#246688"></path><path d="M8 351.6L0 408.4L15 347.1Z" fill="#297ea6" stroke="#297ea6"></path><path d="M91 534.1L146 592.1L170 536.4Z" fill="#0c2435" stroke="#0c2435"></path><path d="M25 459.6L90 468.3L84 389Z" fill="#297ea6" stroke="#297ea6"></path><path d="M99 604.1L152 600L146 592.1Z" fill="#112e42" stroke="#112e42"></path><path d="M146 592.1L152 600L162 600Z" fill="#00101c" stroke="#00101c"></path><path d="M162 600L154 602.3L283 625.1Z" fill="#0c2435" stroke="#0c2435"></path><path d="M99 604.1L154 602.3L152 600Z" fill="#112e42" stroke="#112e42"></path><path d="M152 600L154 602.3L162 600Z" fill="#246688" stroke="#246688"></path><path d="M685 645.1L668 596.3L603 600Z" fill="#081a28" stroke="#081a28"></path><path d="M603 600L668 596.3L663 538.1Z" fill="#081a28" stroke="#081a28"></path><path d="M817 375.7L823 320L799 341Z" fill="#081a28" stroke="#081a28"></path><path d="M799 341L823 320L768 315Z" fill="#205a7a" stroke="#205a7a"></path><path d="M0 512.1L58 508.4L53 490.4Z" fill="#277297" stroke="#277297"></path><path d="M53 490.4L58 508.4L90 468.3Z" fill="#297ea6" stroke="#297ea6"></path><path d="M91 534.1L99 604.1L146 592.1Z" fill="#246688" stroke="#246688"></path><path d="M550 -11.1L130 -54.1L406 0Z" fill="#081a28" stroke="#081a28"></path><path d="M107 0L49 0L104 5.9Z" fill="#081a28" stroke="#081a28"></path><path d="M740 -32.1L130 -54.1L550 -11.1Z" fill="#081a28" stroke="#081a28"></path><path d="M838 141.3L816 162.1L847 166.6Z" fill="#19435d" stroke="#19435d"></path><path d="M811 233.1L816 162.1L763 243.9Z" fill="#1d4e6b" stroke="#1d4e6b"></path><path d="M816 162.1L799 109.6L765 141.9Z" fill="#297ea6" stroke="#297ea6"></path><path d="M778 100.7L772 38.7L757 82.6Z" fill="#15384f" stroke="#15384f"></path><path d="M690 594.3L736 533.3L669 537.1Z" fill="#205a7a" stroke="#205a7a"></path><path d="M804 508.6L813 417.6L773 436.9Z" fill="#0c2435" stroke="#0c2435"></path><path d="M813 417.6L817 375.7L763 418.3Z" fill="#277297" stroke="#277297"></path><path d="M0 408.4L25 459.6L84 389Z" fill="#112e42" stroke="#112e42"></path><path d="M813 417.6L763 418.3L773 436.9Z" fill="#081a28" stroke="#081a28"></path><path d="M0 358.6L0 408.4L8 351.6Z" fill="#19435d" stroke="#19435d"></path><path d="M0 69.9L0 115.7L35 122.4Z" fill="#15384f" stroke="#15384f"></path><path d="M799 109.6L772 38.7L778 100.7Z" fill="#081a28" stroke="#081a28"></path><path d="M-15 137.7L-24 204.4L0 195.4Z" fill="#1d4e6b" stroke="#1d4e6b"></path><path d="M0 195.4L-24 204.4L0 208Z" fill="#277297" stroke="#277297"></path><path d="M0 208L-24 204.4L0 242.3Z" fill="#00101c" stroke="#00101c"></path><path d="M0 242.3L-49 287.1L0 299.1Z" fill="#277297" stroke="#277297"></path><path d="M0 299.1L-49 287.1L0 358.6Z" fill="#205a7a" stroke="#205a7a"></path><path d="M0 358.6L-49 287.1L0 408.4Z" fill="#081a28" stroke="#081a28"></path><path d="M668 596.3L690 594.3L669 537.1Z" fill="#205a7a" stroke="#205a7a"></path><path d="M720 600L690 594.3L685 645.1Z" fill="#081a28" stroke="#081a28"></path><path d="M804 508.6L773 436.9L742 490.1Z" fill="#0c2435" stroke="#0c2435"></path><path d="M858 308.9L811 233.1L823 320Z" fill="#15384f" stroke="#15384f"></path><path d="M0 433.9L9 450.4L25 459.6Z" fill="#112e42" stroke="#112e42"></path><path d="M25 459.6L0 469.7L53 490.4Z" fill="#1d4e6b" stroke="#1d4e6b"></path><path d="M-49 287.1L0 433.9L0 408.4Z" fill="#0c2435" stroke="#0c2435"></path><path d="M0 408.4L0 433.9L25 459.6Z" fill="#081a28" stroke="#081a28"></path><path d="M0 115.7L-15 137.7L30 140.6Z" fill="#15384f" stroke="#15384f"></path><path d="M690 594.3L744 555.4L736 533.3Z" fill="#205a7a" stroke="#205a7a"></path><path d="M736 533.3L804 508.6L742 490.1Z" fill="#277297" stroke="#277297"></path><path d="M60 36.6L0 69.9L35 122.4Z" fill="#246688" stroke="#246688"></path><path d="M0 115.7L0 69.9L-15 137.7Z" fill="#112e42" stroke="#112e42"></path><path d="M130 -54.1L49 0L107 0Z" fill="#15384f" stroke="#15384f"></path><path d="M788 10.7L761 0L772 38.7Z" fill="#277297" stroke="#277297"></path><path d="M772 38.7L761 0L708 0Z" fill="#0c2435" stroke="#0c2435"></path><path d="M708 0L740 -32.1L626 0Z" fill="#00101c" stroke="#00101c"></path><path d="M761 0L740 -32.1L708 0Z" fill="#00101c" stroke="#00101c"></path><path d="M0 64.6L0 69.9L60 36.6Z" fill="#0c2435" stroke="#0c2435"></path><path d="M825 0L788 10.7L772 38.7Z" fill="#0c2435" stroke="#0c2435"></path><path d="M816 162.1L838 141.3L799 109.6Z" fill="#246688" stroke="#246688"></path><path d="M847 166.6L816 162.1L811 233.1Z" fill="#205a7a" stroke="#205a7a"></path><path d="M-49 287.1L0 469.7L0 433.9Z" fill="#081a28" stroke="#081a28"></path><path d="M0 433.9L0 469.7L9 450.4Z" fill="#297ea6" stroke="#297ea6"></path><path d="M9 450.4L0 469.7L25 459.6Z" fill="#00101c" stroke="#00101c"></path><path d="M41 600L99 604.1L91 534.1Z" fill="#00101c" stroke="#00101c"></path><path d="M6 -0.1L0 64.6L60 36.6Z" fill="#15384f" stroke="#15384f"></path><path d="M0 69.9L-19 0L-15 137.7Z" fill="#00101c" stroke="#00101c"></path><path d="M858 308.9L823 320L817 375.7Z" fill="#205a7a" stroke="#205a7a"></path><path d="M900 198.1L847 166.6L811 233.1Z" fill="#19435d" stroke="#19435d"></path><path d="M-15 137.7L-49 287.1L-24 204.4Z" fill="#00101c" stroke="#00101c"></path><path d="M-24 204.4L-49 287.1L0 242.3Z" fill="#19435d" stroke="#19435d"></path><path d="M-19 0L-49 287.1L-15 137.7Z" fill="#19435d" stroke="#19435d"></path><path d="M41 600L91 534.1L58 508.4Z" fill="#1d4e6b" stroke="#1d4e6b"></path><path d="M154 602.3L99 604.1L283 625.1Z" fill="#205a7a" stroke="#205a7a"></path><path d="M900 347.6L858 308.9L817 375.7Z" fill="#112e42" stroke="#112e42"></path><path d="M685 645.1L690 594.3L668 596.3Z" fill="#277297" stroke="#277297"></path><path d="M690 594.3L720 600L744 555.4Z" fill="#277297" stroke="#277297"></path><path d="M847 166.6L845 137.9L838 141.3Z" fill="#112e42" stroke="#112e42"></path><path d="M838 141.3L845 137.9L799 109.6Z" fill="#112e42" stroke="#112e42"></path><path d="M886 129.3L845 137.9L847 166.6Z" fill="#277297" stroke="#277297"></path><path d="M825 0L772 38.7L799 109.6Z" fill="#112e42" stroke="#112e42"></path><path d="M761 0L784 0L740 -32.1Z" fill="#19435d" stroke="#19435d"></path><path d="M825 0L784 0L788 10.7Z" fill="#246688" stroke="#246688"></path><path d="M788 10.7L784 0L761 0Z" fill="#0c2435" stroke="#0c2435"></path><path d="M744 555.4L804 508.6L736 533.3Z" fill="#205a7a" stroke="#205a7a"></path><path d="M813 417.6L883 389.9L817 375.7Z" fill="#297ea6" stroke="#297ea6"></path><path d="M817 524.4L804 508.6L744 555.4Z" fill="#0c2435" stroke="#0c2435"></path><path d="M541 639.1L685 645.1L603 600Z" fill="#19435d" stroke="#19435d"></path><path d="M798 600L817 524.4L744 555.4Z" fill="#277297" stroke="#277297"></path><path d="M-49 287.1L0 512.1L0 469.7Z" fill="#297ea6" stroke="#297ea6"></path><path d="M0 469.7L0 512.1L53 490.4Z" fill="#205a7a" stroke="#205a7a"></path><path d="M49 0L6 -0.1L60 36.6Z" fill="#19435d" stroke="#19435d"></path><path d="M0 64.6L-19 0L0 69.9Z" fill="#0c2435" stroke="#0c2435"></path><path d="M130 -54.1L6 -0.1L49 0Z" fill="#277297" stroke="#277297"></path><path d="M130 -54.1L0 0L6 -0.1Z" fill="#15384f" stroke="#15384f"></path><path d="M6 -0.1L0 0L0 64.6Z" fill="#19435d" stroke="#19435d"></path><path d="M750 624.1L744 555.4L720 600Z" fill="#0c2435" stroke="#0c2435"></path><path d="M804 508.6L859 501.1L813 417.6Z" fill="#0c2435" stroke="#0c2435"></path><path d="M0 584.3L41 600L58 508.4Z" fill="#277297" stroke="#277297"></path><path d="M99 604.1L-7 600L283 625.1Z" fill="#205a7a" stroke="#205a7a"></path><path d="M900 484.1L883 389.9L813 417.6Z" fill="#081a28" stroke="#081a28"></path><path d="M858 308.9L900 255L811 233.1Z" fill="#112e42" stroke="#112e42"></path><path d="M900 285.7L900 268.9L858 308.9Z" fill="#081a28" stroke="#081a28"></path><path d="M900 268.9L900 255L858 308.9Z" fill="#297ea6" stroke="#297ea6"></path><path d="M879 88.9L825 0L799 109.6Z" fill="#112e42" stroke="#112e42"></path><path d="M900 347.6L900 285.7L858 308.9Z" fill="#00101c" stroke="#00101c"></path><path d="M685 645.1L750 624.1L720 600Z" fill="#112e42" stroke="#112e42"></path><path d="M879 88.9L799 109.6L845 137.9Z" fill="#246688" stroke="#246688"></path><path d="M784 0L825 0L740 -32.1Z" fill="#15384f" stroke="#15384f"></path><path d="M953 456.7L890 382.9L883 389.9Z" fill="#205a7a" stroke="#205a7a"></path><path d="M883 389.9L890 382.9L817 375.7Z" fill="#246688" stroke="#246688"></path><path d="M900 255L900 198.1L811 233.1Z" fill="#0c2435" stroke="#0c2435"></path><path d="M900 186.3L886 129.3L847 166.6Z" fill="#277297" stroke="#277297"></path><path d="M900 198.1L900 191.6L847 166.6Z" fill="#297ea6" stroke="#297ea6"></path><path d="M130 -54.1L-19 0L0 0Z" fill="#277297" stroke="#277297"></path><path d="M0 0L-19 0L0 64.6Z" fill="#297ea6" stroke="#297ea6"></path><path d="M890 382.9L900 347.6L817 375.7Z" fill="#246688" stroke="#246688"></path><path d="M900 191.6L900 186.3L847 166.6Z" fill="#0c2435" stroke="#0c2435"></path><path d="M900 78.4L879 88.9L886 129.3Z" fill="#297ea6" stroke="#297ea6"></path><path d="M886 129.3L879 88.9L845 137.9Z" fill="#00101c" stroke="#00101c"></path><path d="M883 503.1L859 501.1L890 560.4Z" fill="#0c2435" stroke="#0c2435"></path><path d="M817 524.4L859 501.1L804 508.6Z" fill="#0c2435" stroke="#0c2435"></path><path d="M890 382.9L953 456.7L900 347.6Z" fill="#1d4e6b" stroke="#1d4e6b"></path><path d="M-7 600L0 584.3L0 512.1Z" fill="#0c2435" stroke="#0c2435"></path><path d="M0 512.1L0 584.3L58 508.4Z" fill="#00101c" stroke="#00101c"></path><path d="M750 624.1L798 600L744 555.4Z" fill="#205a7a" stroke="#205a7a"></path><path d="M900 191.6L935 231.1L900 186.3Z" fill="#0c2435" stroke="#0c2435"></path><path d="M900 186.3L900 78.4L886 129.3Z" fill="#081a28" stroke="#081a28"></path><path d="M900 198.1L935 231.1L900 191.6Z" fill="#277297" stroke="#277297"></path><path d="M900 255L935 231.1L900 198.1Z" fill="#277297" stroke="#277297"></path><path d="M900 268.9L926 258.3L900 255Z" fill="#0c2435" stroke="#0c2435"></path><path d="M900 285.7L926 258.3L900 268.9Z" fill="#112e42" stroke="#112e42"></path><path d="M900 347.6L926 258.3L900 285.7Z" fill="#00101c" stroke="#00101c"></path><path d="M935 231.1L926 258.3L945 238.4Z" fill="#112e42" stroke="#112e42"></path><path d="M0 584.3L0 600L41 600Z" fill="#1d4e6b" stroke="#1d4e6b"></path><path d="M41 600L0 600L99 604.1Z" fill="#00101c" stroke="#00101c"></path><path d="M-7 600L0 600L0 584.3Z" fill="#1d4e6b" stroke="#1d4e6b"></path><path d="M-49 287.1L-7 600L0 512.1Z" fill="#15384f" stroke="#15384f"></path><path d="M0 600L-7 600L99 604.1Z" fill="#0c2435" stroke="#0c2435"></path><path d="M945 238.4L900 78.4L900 186.3Z" fill="#19435d" stroke="#19435d"></path><path d="M879 88.9L900 39.9L825 0Z" fill="#112e42" stroke="#112e42"></path><path d="M945 238.4L926 258.3L900 347.6Z" fill="#277297" stroke="#277297"></path><path d="M926 258.3L935 231.1L900 255Z" fill="#081a28" stroke="#081a28"></path><path d="M890 560.4L859 501.1L817 524.4Z" fill="#277297" stroke="#277297"></path><path d="M859 501.1L900 484.1L813 417.6Z" fill="#112e42" stroke="#112e42"></path><path d="M798 600L822 600L817 524.4Z" fill="#0c2435" stroke="#0c2435"></path><path d="M750 624.1L822 600L798 600Z" fill="#1d4e6b" stroke="#1d4e6b"></path><path d="M900 558.4L900 484.1L883 503.1Z" fill="#112e42" stroke="#112e42"></path><path d="M883 503.1L900 484.1L859 501.1Z" fill="#15384f" stroke="#15384f"></path><path d="M953 456.7L945 238.4L900 347.6Z" fill="#0c2435" stroke="#0c2435"></path><path d="M935 231.1L945 238.4L900 186.3Z" fill="#1d4e6b" stroke="#1d4e6b"></path><path d="M948 0L900 39.9L900 78.4Z" fill="#277297" stroke="#277297"></path><path d="M900 78.4L900 39.9L879 88.9Z" fill="#1d4e6b" stroke="#1d4e6b"></path><path d="M822 600L847 600L817 524.4Z" fill="#1d4e6b" stroke="#1d4e6b"></path><path d="M750 624.1L847 600L822 600Z" fill="#297ea6" stroke="#297ea6"></path><path d="M900 593.3L847 600L898 600Z" fill="#297ea6" stroke="#297ea6"></path><path d="M948 0L900 10.7L900 39.9Z" fill="#1d4e6b" stroke="#1d4e6b"></path><path d="M900 39.9L900 10.7L825 0Z" fill="#277297" stroke="#277297"></path><path d="M825 0L900 0L740 -32.1Z" fill="#081a28" stroke="#081a28"></path><path d="M948 0L900 0L900 10.7Z" fill="#246688" stroke="#246688"></path><path d="M900 10.7L900 0L825 0Z" fill="#1d4e6b" stroke="#1d4e6b"></path><path d="M847 600L890 560.4L817 524.4Z" fill="#0c2435" stroke="#0c2435"></path><path d="M900 484.1L953 456.7L883 389.9Z" fill="#297ea6" stroke="#297ea6"></path><path d="M900 593.3L900 558.4L890 560.4Z" fill="#205a7a" stroke="#205a7a"></path><path d="M890 560.4L900 558.4L883 503.1Z" fill="#0c2435" stroke="#0c2435"></path><path d="M900 558.4L953 456.7L900 484.1Z" fill="#297ea6" stroke="#297ea6"></path><path d="M847 600L900 593.3L890 560.4Z" fill="#112e42" stroke="#112e42"></path><path d="M900 558.4L900 593.3L953 456.7Z" fill="#19435d" stroke="#19435d"></path><path d="M898 600L847 600L750 624.1Z" fill="#112e42" stroke="#112e42"></path><path d="M900 600L898 600L750 624.1Z" fill="#297ea6" stroke="#297ea6"></path><path d="M900 593.3L900 600L953 456.7Z" fill="#081a28" stroke="#081a28"></path><path d="M685 645.1L900 600L750 624.1Z" fill="#297ea6" stroke="#297ea6"></path><path d="M898 600L900 600L900 593.3Z" fill="#277297" stroke="#277297"></path><path d="M945 238.4L948 0L900 78.4Z" fill="#112e42" stroke="#112e42"></path><path d="M900 0L948 0L740 -32.1Z" fill="#277297" stroke="#277297"></path><path d="M953 456.7L948 0L945 238.4Z" fill="#081a28" stroke="#081a28"></path></g></svg>